<mxfile host="Electron" agent="Mozilla/5.0 (Windows NT 10.0; Win64; x64) AppleWebKit/537.36 (KHTML, like Gecko) draw.io/24.7.8 Chrome/128.0.6613.36 Electron/32.0.1 Safari/537.36" version="24.7.8">
  <diagram name="Страница — 1" id="fw8LipBBCFxUQJdgDzNN">
    <mxGraphModel dx="2856" dy="984" grid="1" gridSize="10" guides="1" tooltips="1" connect="1" arrows="1" fold="1" page="1" pageScale="1" pageWidth="1169" pageHeight="827" math="0" shadow="0">
      <root>
        <mxCell id="0" />
        <mxCell id="1" parent="0" />
        <mxCell id="VNg7bJUlAuyF453kbOdI-1" value="" style="rounded=0;whiteSpace=wrap;html=1;fillColor=#f8cecc;strokeColor=#b85450;" vertex="1" parent="1">
          <mxGeometry x="-210" y="570" width="950" height="230" as="geometry" />
        </mxCell>
        <mxCell id="VNg7bJUlAuyF453kbOdI-2" value="" style="rounded=0;whiteSpace=wrap;html=1;fillColor=#f8cecc;strokeColor=#b85450;" vertex="1" parent="1">
          <mxGeometry x="810" y="570" width="540" height="230" as="geometry" />
        </mxCell>
        <mxCell id="VNg7bJUlAuyF453kbOdI-3" value="" style="rounded=0;whiteSpace=wrap;html=1;fillColor=#d5e8d4;strokeColor=#82b366;" vertex="1" parent="1">
          <mxGeometry x="-210" y="320" width="950" height="230" as="geometry" />
        </mxCell>
        <mxCell id="VNg7bJUlAuyF453kbOdI-4" value="" style="rounded=0;whiteSpace=wrap;html=1;fillColor=#dae8fc;strokeColor=#6c8ebf;" vertex="1" parent="1">
          <mxGeometry x="-210" y="70" width="950" height="230" as="geometry" />
        </mxCell>
        <mxCell id="VNg7bJUlAuyF453kbOdI-5" value="" style="rounded=0;whiteSpace=wrap;html=1;fillColor=#d5e8d4;strokeColor=#82b366;" vertex="1" parent="1">
          <mxGeometry x="810" y="320" width="540" height="230" as="geometry" />
        </mxCell>
        <mxCell id="VNg7bJUlAuyF453kbOdI-6" value="" style="rounded=0;whiteSpace=wrap;html=1;fillColor=#dae8fc;strokeColor=#6c8ebf;" vertex="1" parent="1">
          <mxGeometry x="810" y="70" width="540" height="230" as="geometry" />
        </mxCell>
        <mxCell id="VNg7bJUlAuyF453kbOdI-7" value="Каталог статей" style="rounded=0;whiteSpace=wrap;html=1;" vertex="1" parent="1">
          <mxGeometry x="-130" y="590" width="120" height="190" as="geometry" />
        </mxCell>
        <mxCell id="VNg7bJUlAuyF453kbOdI-8" value="FilterArticlesByTag" style="ellipse;whiteSpace=wrap;html=1;" vertex="1" parent="1">
          <mxGeometry x="-210" y="460" width="120" height="80" as="geometry" />
        </mxCell>
        <mxCell id="VNg7bJUlAuyF453kbOdI-9" value="" style="endArrow=classic;html=1;rounded=0;exitX=0.25;exitY=0;exitDx=0;exitDy=0;entryX=0.5;entryY=1;entryDx=0;entryDy=0;" edge="1" parent="1" source="VNg7bJUlAuyF453kbOdI-7" target="VNg7bJUlAuyF453kbOdI-8">
          <mxGeometry width="50" height="50" relative="1" as="geometry">
            <mxPoint y="490" as="sourcePoint" />
            <mxPoint x="50" y="440" as="targetPoint" />
          </mxGeometry>
        </mxCell>
        <mxCell id="VNg7bJUlAuyF453kbOdI-10" value="FilterArticlesByDate" style="ellipse;whiteSpace=wrap;html=1;" vertex="1" parent="1">
          <mxGeometry x="-40" y="460" width="120" height="80" as="geometry" />
        </mxCell>
        <mxCell id="VNg7bJUlAuyF453kbOdI-11" value="" style="endArrow=classic;html=1;rounded=0;exitX=0.75;exitY=0;exitDx=0;exitDy=0;entryX=0;entryY=1;entryDx=0;entryDy=0;" edge="1" parent="1" target="VNg7bJUlAuyF453kbOdI-10" source="VNg7bJUlAuyF453kbOdI-7">
          <mxGeometry width="50" height="50" relative="1" as="geometry">
            <mxPoint x="110" y="570" as="sourcePoint" />
            <mxPoint x="230" y="420" as="targetPoint" />
          </mxGeometry>
        </mxCell>
        <mxCell id="VNg7bJUlAuyF453kbOdI-12" value="GetArticlesData" style="ellipse;whiteSpace=wrap;html=1;" vertex="1" parent="1">
          <mxGeometry x="-130" y="360" width="120" height="80" as="geometry" />
        </mxCell>
        <mxCell id="VNg7bJUlAuyF453kbOdI-13" value="" style="endArrow=classic;html=1;rounded=0;exitX=0.5;exitY=0;exitDx=0;exitDy=0;entryX=0.5;entryY=1;entryDx=0;entryDy=0;" edge="1" parent="1" target="VNg7bJUlAuyF453kbOdI-12" source="VNg7bJUlAuyF453kbOdI-7">
          <mxGeometry width="50" height="50" relative="1" as="geometry">
            <mxPoint x="-90" y="500" as="sourcePoint" />
            <mxPoint x="180" y="330" as="targetPoint" />
          </mxGeometry>
        </mxCell>
        <mxCell id="VNg7bJUlAuyF453kbOdI-14" value="Любимые статьи" style="rounded=0;whiteSpace=wrap;html=1;" vertex="1" parent="1">
          <mxGeometry x="40" y="590" width="120" height="190" as="geometry" />
        </mxCell>
        <mxCell id="VNg7bJUlAuyF453kbOdI-16" value="GetFavsArticlesData" style="ellipse;whiteSpace=wrap;html=1;" vertex="1" parent="1">
          <mxGeometry x="40" y="374" width="120" height="80" as="geometry" />
        </mxCell>
        <mxCell id="VNg7bJUlAuyF453kbOdI-17" value="" style="endArrow=classic;html=1;rounded=0;entryX=0.5;entryY=1;entryDx=0;entryDy=0;exitX=0.5;exitY=0;exitDx=0;exitDy=0;" edge="1" parent="1" source="VNg7bJUlAuyF453kbOdI-14" target="VNg7bJUlAuyF453kbOdI-16">
          <mxGeometry width="50" height="50" relative="1" as="geometry">
            <mxPoint x="480" y="550" as="sourcePoint" />
            <mxPoint x="530" y="500" as="targetPoint" />
          </mxGeometry>
        </mxCell>
        <mxCell id="VNg7bJUlAuyF453kbOdI-18" value="Личные статьи" style="rounded=0;whiteSpace=wrap;html=1;" vertex="1" parent="1">
          <mxGeometry x="270" y="590" width="120" height="190" as="geometry" />
        </mxCell>
        <mxCell id="VNg7bJUlAuyF453kbOdI-19" value="" style="endArrow=classic;html=1;rounded=0;entryX=0.5;entryY=1;entryDx=0;entryDy=0;exitX=0.25;exitY=0;exitDx=0;exitDy=0;" edge="1" parent="1" source="VNg7bJUlAuyF453kbOdI-18" target="VNg7bJUlAuyF453kbOdI-20">
          <mxGeometry width="50" height="50" relative="1" as="geometry">
            <mxPoint x="240" y="590" as="sourcePoint" />
            <mxPoint x="240" y="454" as="targetPoint" />
          </mxGeometry>
        </mxCell>
        <mxCell id="VNg7bJUlAuyF453kbOdI-20" value="GetArticlesByUserId" style="ellipse;whiteSpace=wrap;html=1;" vertex="1" parent="1">
          <mxGeometry x="120" y="460" width="120" height="80" as="geometry" />
        </mxCell>
        <mxCell id="VNg7bJUlAuyF453kbOdI-21" value="" style="endArrow=classic;html=1;rounded=0;entryX=0.5;entryY=1;entryDx=0;entryDy=0;exitX=0.75;exitY=0;exitDx=0;exitDy=0;" edge="1" parent="1" target="VNg7bJUlAuyF453kbOdI-22" source="VNg7bJUlAuyF453kbOdI-18">
          <mxGeometry width="50" height="50" relative="1" as="geometry">
            <mxPoint x="270" y="580" as="sourcePoint" />
            <mxPoint x="400" y="440" as="targetPoint" />
          </mxGeometry>
        </mxCell>
        <mxCell id="VNg7bJUlAuyF453kbOdI-22" value="GetArticleById" style="ellipse;whiteSpace=wrap;html=1;" vertex="1" parent="1">
          <mxGeometry x="380" y="334" width="120" height="80" as="geometry" />
        </mxCell>
        <mxCell id="VNg7bJUlAuyF453kbOdI-23" value="Страница статьи" style="rounded=0;whiteSpace=wrap;html=1;" vertex="1" parent="1">
          <mxGeometry x="520" y="590" width="120" height="190" as="geometry" />
        </mxCell>
        <mxCell id="VNg7bJUlAuyF453kbOdI-24" value="" style="endArrow=classic;html=1;rounded=0;entryX=0;entryY=1;entryDx=0;entryDy=0;exitX=0.75;exitY=0;exitDx=0;exitDy=0;" edge="1" parent="1" target="VNg7bJUlAuyF453kbOdI-25" source="VNg7bJUlAuyF453kbOdI-23">
          <mxGeometry width="50" height="50" relative="1" as="geometry">
            <mxPoint x="460" y="540" as="sourcePoint" />
            <mxPoint x="470" y="404" as="targetPoint" />
          </mxGeometry>
        </mxCell>
        <mxCell id="VNg7bJUlAuyF453kbOdI-25" value="AddArticleToFavsById" style="ellipse;whiteSpace=wrap;html=1;" vertex="1" parent="1">
          <mxGeometry x="620" y="460" width="120" height="80" as="geometry" />
        </mxCell>
        <mxCell id="VNg7bJUlAuyF453kbOdI-26" value="" style="endArrow=classic;html=1;rounded=0;entryX=0.5;entryY=1;entryDx=0;entryDy=0;exitX=0.5;exitY=0;exitDx=0;exitDy=0;" edge="1" parent="1" target="VNg7bJUlAuyF453kbOdI-27" source="VNg7bJUlAuyF453kbOdI-18">
          <mxGeometry width="50" height="50" relative="1" as="geometry">
            <mxPoint x="300" y="600" as="sourcePoint" />
            <mxPoint x="410" y="450" as="targetPoint" />
          </mxGeometry>
        </mxCell>
        <mxCell id="VNg7bJUlAuyF453kbOdI-27" value="AddNewArticleByUserId" style="ellipse;whiteSpace=wrap;html=1;" vertex="1" parent="1">
          <mxGeometry x="240" y="400" width="140" height="80" as="geometry" />
        </mxCell>
        <mxCell id="VNg7bJUlAuyF453kbOdI-30" value="" style="endArrow=classic;html=1;rounded=0;entryX=0.5;entryY=1;entryDx=0;entryDy=0;exitX=0.5;exitY=0;exitDx=0;exitDy=0;" edge="1" parent="1" target="VNg7bJUlAuyF453kbOdI-31" source="VNg7bJUlAuyF453kbOdI-23">
          <mxGeometry width="50" height="50" relative="1" as="geometry">
            <mxPoint x="420" y="479" as="sourcePoint" />
            <mxPoint x="440" y="293" as="targetPoint" />
          </mxGeometry>
        </mxCell>
        <mxCell id="VNg7bJUlAuyF453kbOdI-31" value="RemoveArticleFromFavsById" style="ellipse;whiteSpace=wrap;html=1;" vertex="1" parent="1">
          <mxGeometry x="560" y="320" width="180" height="80" as="geometry" />
        </mxCell>
        <mxCell id="VNg7bJUlAuyF453kbOdI-32" value="" style="endArrow=classic;html=1;rounded=0;entryX=0.5;entryY=1;entryDx=0;entryDy=0;exitX=0.5;exitY=0;exitDx=0;exitDy=0;" edge="1" parent="1" target="VNg7bJUlAuyF453kbOdI-33" source="VNg7bJUlAuyF453kbOdI-23">
          <mxGeometry width="50" height="50" relative="1" as="geometry">
            <mxPoint x="490" y="540" as="sourcePoint" />
            <mxPoint x="260" y="298" as="targetPoint" />
          </mxGeometry>
        </mxCell>
        <mxCell id="VNg7bJUlAuyF453kbOdI-33" value="EditArticleById" style="ellipse;whiteSpace=wrap;html=1;" vertex="1" parent="1">
          <mxGeometry x="500" y="395" width="120" height="80" as="geometry" />
        </mxCell>
        <mxCell id="VNg7bJUlAuyF453kbOdI-34" value="" style="endArrow=classic;html=1;rounded=0;entryX=1;entryY=1;entryDx=0;entryDy=0;exitX=0.25;exitY=0;exitDx=0;exitDy=0;" edge="1" parent="1" target="VNg7bJUlAuyF453kbOdI-35" source="VNg7bJUlAuyF453kbOdI-23">
          <mxGeometry width="50" height="50" relative="1" as="geometry">
            <mxPoint x="560" y="610" as="sourcePoint" />
            <mxPoint x="270" y="308" as="targetPoint" />
          </mxGeometry>
        </mxCell>
        <mxCell id="VNg7bJUlAuyF453kbOdI-35" value="RemoveArticleById" style="ellipse;whiteSpace=wrap;html=1;" vertex="1" parent="1">
          <mxGeometry x="410" y="460" width="120" height="80" as="geometry" />
        </mxCell>
        <mxCell id="VNg7bJUlAuyF453kbOdI-37" value="domain" style="text;html=1;align=center;verticalAlign=middle;whiteSpace=wrap;rounded=0;" vertex="1" parent="1">
          <mxGeometry x="-210" y="320" width="60" height="30" as="geometry" />
        </mxCell>
        <mxCell id="VNg7bJUlAuyF453kbOdI-38" value="domain" style="text;html=1;align=center;verticalAlign=middle;whiteSpace=wrap;rounded=0;" vertex="1" parent="1">
          <mxGeometry x="810" y="320" width="60" height="30" as="geometry" />
        </mxCell>
        <mxCell id="VNg7bJUlAuyF453kbOdI-39" value="data" style="text;html=1;align=center;verticalAlign=middle;whiteSpace=wrap;rounded=0;" vertex="1" parent="1">
          <mxGeometry x="-210" y="70" width="60" height="30" as="geometry" />
        </mxCell>
        <mxCell id="VNg7bJUlAuyF453kbOdI-40" value="data" style="text;html=1;align=center;verticalAlign=middle;whiteSpace=wrap;rounded=0;" vertex="1" parent="1">
          <mxGeometry x="810" y="70" width="60" height="30" as="geometry" />
        </mxCell>
        <mxCell id="VNg7bJUlAuyF453kbOdI-41" value="presentation" style="text;html=1;align=center;verticalAlign=middle;whiteSpace=wrap;rounded=0;" vertex="1" parent="1">
          <mxGeometry x="-200" y="570" width="60" height="30" as="geometry" />
        </mxCell>
        <mxCell id="VNg7bJUlAuyF453kbOdI-42" value="presentation" style="text;html=1;align=center;verticalAlign=middle;whiteSpace=wrap;rounded=0;" vertex="1" parent="1">
          <mxGeometry x="820" y="570" width="60" height="30" as="geometry" />
        </mxCell>
        <mxCell id="VNg7bJUlAuyF453kbOdI-43" value="ArticlesRepositoryImplementation" style="rounded=0;whiteSpace=wrap;html=1;" vertex="1" parent="1">
          <mxGeometry x="-190" y="110" width="190" height="60" as="geometry" />
        </mxCell>
        <mxCell id="VNg7bJUlAuyF453kbOdI-44" value="Article" style="rounded=1;whiteSpace=wrap;html=1;" vertex="1" parent="1">
          <mxGeometry x="-10" y="330" width="90" height="40" as="geometry" />
        </mxCell>
        <mxCell id="VNg7bJUlAuyF453kbOdI-45" value="ArticleRepository" style="rounded=0;whiteSpace=wrap;html=1;" vertex="1" parent="1">
          <mxGeometry x="140" y="330" width="160" height="40" as="geometry" />
        </mxCell>
        <mxCell id="VNg7bJUlAuyF453kbOdI-48" value="" style="endArrow=classic;html=1;rounded=0;entryX=1;entryY=0.5;entryDx=0;entryDy=0;exitX=1.002;exitY=0.726;exitDx=0;exitDy=0;exitPerimeter=0;" edge="1" parent="1" source="VNg7bJUlAuyF453kbOdI-3" target="VNg7bJUlAuyF453kbOdI-1">
          <mxGeometry width="50" height="50" relative="1" as="geometry">
            <mxPoint x="600" y="470" as="sourcePoint" />
            <mxPoint x="650" y="420" as="targetPoint" />
            <Array as="points">
              <mxPoint x="770" y="487" />
              <mxPoint x="770" y="685" />
            </Array>
          </mxGeometry>
        </mxCell>
        <mxCell id="VNg7bJUlAuyF453kbOdI-51" value="" style="endArrow=classic;html=1;rounded=0;entryX=1;entryY=0.5;entryDx=0;entryDy=0;exitX=1;exitY=0.25;exitDx=0;exitDy=0;" edge="1" parent="1" source="VNg7bJUlAuyF453kbOdI-3" target="VNg7bJUlAuyF453kbOdI-4">
          <mxGeometry width="50" height="50" relative="1" as="geometry">
            <mxPoint x="600" y="470" as="sourcePoint" />
            <mxPoint x="650" y="420" as="targetPoint" />
            <Array as="points">
              <mxPoint x="770" y="378" />
              <mxPoint x="770" y="185" />
            </Array>
          </mxGeometry>
        </mxCell>
        <mxCell id="VNg7bJUlAuyF453kbOdI-52" value="" style="endArrow=classic;html=1;rounded=0;exitX=0;exitY=0.25;exitDx=0;exitDy=0;entryX=0;entryY=0.5;entryDx=0;entryDy=0;" edge="1" parent="1" source="VNg7bJUlAuyF453kbOdI-4" target="VNg7bJUlAuyF453kbOdI-1">
          <mxGeometry width="50" height="50" relative="1" as="geometry">
            <mxPoint x="330" y="470" as="sourcePoint" />
            <mxPoint x="-230" y="700" as="targetPoint" />
            <Array as="points">
              <mxPoint x="-230" y="127" />
              <mxPoint x="-230" y="685" />
            </Array>
          </mxGeometry>
        </mxCell>
        <mxCell id="VNg7bJUlAuyF453kbOdI-53" value="Авторизация&lt;span style=&quot;color: rgba(0, 0, 0, 0); font-family: monospace; font-size: 0px; text-align: start; text-wrap: nowrap;&quot;&gt;%3CmxGraphModel%3E%3Croot%3E%3CmxCell%20id%3D%220%22%2F%3E%3CmxCell%20id%3D%221%22%20parent%3D%220%22%2F%3E%3CmxCell%20id%3D%222%22%20value%3D%22%D0%A1%D1%82%D1%80%D0%B0%D0%BD%D0%B8%D1%86%D0%B0%20%D1%81%D1%82%D0%B0%D1%82%D1%8C%D0%B8%22%20style%3D%22rounded%3D0%3BwhiteSpace%3Dwrap%3Bhtml%3D1%3B%22%20vertex%3D%221%22%20parent%3D%221%22%3E%3CmxGeometry%20x%3D%22520%22%20y%3D%22590%22%20width%3D%22120%22%20height%3D%22190%22%20as%3D%22geometry%22%2F%3E%3C%2FmxCell%3E%3C%2Froot%3E%3C%2FmxGraphModel%3E&lt;/span&gt;" style="rounded=0;whiteSpace=wrap;html=1;" vertex="1" parent="1">
          <mxGeometry x="910" y="590" width="120" height="190" as="geometry" />
        </mxCell>
        <mxCell id="VNg7bJUlAuyF453kbOdI-54" value="Личный кабинет" style="rounded=0;whiteSpace=wrap;html=1;" vertex="1" parent="1">
          <mxGeometry x="1120" y="590" width="120" height="190" as="geometry" />
        </mxCell>
        <mxCell id="VNg7bJUlAuyF453kbOdI-55" value="" style="endArrow=classic;html=1;rounded=0;entryX=0.5;entryY=1;entryDx=0;entryDy=0;exitX=0.75;exitY=0;exitDx=0;exitDy=0;" edge="1" parent="1" target="VNg7bJUlAuyF453kbOdI-56" source="VNg7bJUlAuyF453kbOdI-54">
          <mxGeometry width="50" height="50" relative="1" as="geometry">
            <mxPoint x="1260" y="560" as="sourcePoint" />
            <mxPoint x="980" y="278" as="targetPoint" />
          </mxGeometry>
        </mxCell>
        <mxCell id="VNg7bJUlAuyF453kbOdI-56" value="GetUserDataById" style="ellipse;whiteSpace=wrap;html=1;" vertex="1" parent="1">
          <mxGeometry x="1220" y="440" width="120" height="80" as="geometry" />
        </mxCell>
        <mxCell id="VNg7bJUlAuyF453kbOdI-57" value="" style="endArrow=classic;html=1;rounded=0;entryX=0.5;entryY=1;entryDx=0;entryDy=0;exitX=0.5;exitY=0;exitDx=0;exitDy=0;" edge="1" parent="1" target="VNg7bJUlAuyF453kbOdI-58" source="VNg7bJUlAuyF453kbOdI-54">
          <mxGeometry width="50" height="50" relative="1" as="geometry">
            <mxPoint x="1000" y="545" as="sourcePoint" />
            <mxPoint x="770" y="233" as="targetPoint" />
          </mxGeometry>
        </mxCell>
        <mxCell id="VNg7bJUlAuyF453kbOdI-58" value="LogOut" style="ellipse;whiteSpace=wrap;html=1;" vertex="1" parent="1">
          <mxGeometry x="1169" y="340" width="120" height="80" as="geometry" />
        </mxCell>
        <mxCell id="VNg7bJUlAuyF453kbOdI-59" value="ChangeUserInfo" style="ellipse;whiteSpace=wrap;html=1;" vertex="1" parent="1">
          <mxGeometry x="1050" y="450" width="120" height="80" as="geometry" />
        </mxCell>
        <mxCell id="VNg7bJUlAuyF453kbOdI-60" value="" style="endArrow=classic;html=1;rounded=0;exitX=0.25;exitY=0;exitDx=0;exitDy=0;entryX=0.5;entryY=1;entryDx=0;entryDy=0;" edge="1" parent="1" source="VNg7bJUlAuyF453kbOdI-54" target="VNg7bJUlAuyF453kbOdI-59">
          <mxGeometry width="50" height="50" relative="1" as="geometry">
            <mxPoint x="1190" y="600" as="sourcePoint" />
            <mxPoint x="1190" y="450" as="targetPoint" />
          </mxGeometry>
        </mxCell>
        <mxCell id="VNg7bJUlAuyF453kbOdI-61" value="Sing in" style="ellipse;whiteSpace=wrap;html=1;" vertex="1" parent="1">
          <mxGeometry x="820" y="454" width="120" height="80" as="geometry" />
        </mxCell>
        <mxCell id="VNg7bJUlAuyF453kbOdI-62" value="" style="endArrow=classic;html=1;rounded=0;exitX=0.25;exitY=0;exitDx=0;exitDy=0;entryX=0.5;entryY=1;entryDx=0;entryDy=0;" edge="1" parent="1" target="VNg7bJUlAuyF453kbOdI-61" source="VNg7bJUlAuyF453kbOdI-53">
          <mxGeometry width="50" height="50" relative="1" as="geometry">
            <mxPoint x="930" y="580" as="sourcePoint" />
            <mxPoint x="970" y="440" as="targetPoint" />
          </mxGeometry>
        </mxCell>
        <mxCell id="VNg7bJUlAuyF453kbOdI-63" value="Sing up" style="ellipse;whiteSpace=wrap;html=1;" vertex="1" parent="1">
          <mxGeometry x="940" y="400" width="120" height="80" as="geometry" />
        </mxCell>
        <mxCell id="VNg7bJUlAuyF453kbOdI-64" value="" style="endArrow=classic;html=1;rounded=0;exitX=0.75;exitY=0;exitDx=0;exitDy=0;entryX=0.5;entryY=1;entryDx=0;entryDy=0;" edge="1" parent="1" target="VNg7bJUlAuyF453kbOdI-63" source="VNg7bJUlAuyF453kbOdI-53">
          <mxGeometry width="50" height="50" relative="1" as="geometry">
            <mxPoint x="1000" y="515" as="sourcePoint" />
            <mxPoint x="1090" y="375" as="targetPoint" />
          </mxGeometry>
        </mxCell>
        <mxCell id="VNg7bJUlAuyF453kbOdI-65" value="UserRepositoryImplementation" style="rounded=0;whiteSpace=wrap;html=1;" vertex="1" parent="1">
          <mxGeometry x="830" y="110" width="190" height="60" as="geometry" />
        </mxCell>
        <mxCell id="VNg7bJUlAuyF453kbOdI-66" value="User" style="rounded=1;whiteSpace=wrap;html=1;" vertex="1" parent="1">
          <mxGeometry x="890" y="340" width="100" height="40" as="geometry" />
        </mxCell>
        <mxCell id="VNg7bJUlAuyF453kbOdI-67" value="UserRepository" style="rounded=0;whiteSpace=wrap;html=1;" vertex="1" parent="1">
          <mxGeometry x="1000" y="340" width="150" height="40" as="geometry" />
        </mxCell>
        <mxCell id="VNg7bJUlAuyF453kbOdI-68" value="" style="endArrow=classic;html=1;rounded=0;entryX=1;entryY=0.5;entryDx=0;entryDy=0;exitX=1;exitY=0.25;exitDx=0;exitDy=0;" edge="1" parent="1" source="VNg7bJUlAuyF453kbOdI-5" target="VNg7bJUlAuyF453kbOdI-6">
          <mxGeometry width="50" height="50" relative="1" as="geometry">
            <mxPoint x="1360" y="374" as="sourcePoint" />
            <mxPoint x="1360" y="181" as="targetPoint" />
            <Array as="points">
              <mxPoint x="1380" y="378" />
              <mxPoint x="1380" y="185" />
            </Array>
          </mxGeometry>
        </mxCell>
        <mxCell id="VNg7bJUlAuyF453kbOdI-69" value="" style="endArrow=classic;html=1;rounded=0;entryX=1;entryY=0.5;entryDx=0;entryDy=0;exitX=1;exitY=0.75;exitDx=0;exitDy=0;" edge="1" parent="1" source="VNg7bJUlAuyF453kbOdI-5" target="VNg7bJUlAuyF453kbOdI-2">
          <mxGeometry width="50" height="50" relative="1" as="geometry">
            <mxPoint x="1392" y="470" as="sourcePoint" />
            <mxPoint x="1390" y="668" as="targetPoint" />
            <Array as="points">
              <mxPoint x="1380" y="493" />
              <mxPoint x="1380" y="685" />
            </Array>
          </mxGeometry>
        </mxCell>
        <mxCell id="VNg7bJUlAuyF453kbOdI-70" value="" style="endArrow=classic;html=1;rounded=0;exitX=-0.001;exitY=0.26;exitDx=0;exitDy=0;entryX=0;entryY=0.5;entryDx=0;entryDy=0;exitPerimeter=0;" edge="1" parent="1" source="VNg7bJUlAuyF453kbOdI-6" target="VNg7bJUlAuyF453kbOdI-2">
          <mxGeometry width="50" height="50" relative="1" as="geometry">
            <mxPoint x="810" y="130" as="sourcePoint" />
            <mxPoint x="810" y="688" as="targetPoint" />
            <Array as="points">
              <mxPoint x="790" y="130" />
              <mxPoint x="790" y="685" />
            </Array>
          </mxGeometry>
        </mxCell>
      </root>
    </mxGraphModel>
  </diagram>
</mxfile>
